<svg xmlns="http://www.w3.org/2000/svg" width="400" height="240" viewBox="0 0 400 240">
  <defs>
    <pattern id="dots" width="20" height="20" patternUnits="userSpaceOnUse">
      <circle cx="10" cy="10" r="1.2" fill="white" opacity="0.08"/>
    </pattern>
    <linearGradient id="bg" x1="0" y1="0" x2="1" y2="1">
      <stop offset="0%" stop-color="#0099A8"/>
      <stop offset="100%" stop-color="#007A87"/>
    </linearGradient>
  </defs>
  <rect width="400" height="240" rx="12" fill="url(#bg)"/>
  <rect width="400" height="240" rx="12" fill="url(#dots)"/>
  <g transform="translate(160,80)" fill="none" stroke="white" stroke-width="4" stroke-linecap="round" stroke-linejoin="round">
    <path d="M24 8c-10-4-22 6-22 20 0 10 6 18 14 18 2 0 4-1 8-1s6 1 8 1c8 0 14-8 14-18 0-14-12-24-22-20z" fill="white" fill-opacity="0.15"/>
    <path d="M24 2c4-1 8 2 8 6"/>
    <path d="M22 8c0-4 2-8 6-8"/>
  </g>
</svg>