<svg xmlns="http://www.w3.org/2000/svg" width="400" height="240" viewBox="0 0 400 240">
  <defs>
    <pattern id="dots" width="20" height="20" patternUnits="userSpaceOnUse">
      <circle cx="10" cy="10" r="1.2" fill="white" opacity="0.08"/>
    </pattern>
    <linearGradient id="bg" x1="0" y1="0" x2="1" y2="1">
      <stop offset="0%" stop-color="#0099A8"/>
      <stop offset="100%" stop-color="#007A87"/>
    </linearGradient>
  </defs>
  <rect width="400" height="240" rx="12" fill="url(#bg)"/>
  <rect width="400" height="240" rx="12" fill="url(#dots)"/>
  <g transform="translate(160,80)" fill="none" stroke="white" stroke-width="4" stroke-linecap="round" stroke-linejoin="round">
    <path d="M4 6h24c2 0 4 2 4 4v16c0 2-2 4-4 4H12l-8 8v-8c-2 0-4-2-4-4V10c0-2 2-4 4-4z" fill="white" fill-opacity="0.15"/>
    <path d="M20 10h20c2 0 4 2 4 4v16c0 2-2 4-4 4v8l-8-8H20" fill="white" fill-opacity="0.1"/>
    <line x1="10" y1="16" x2="22" y2="16" stroke-width="3"/>
    <line x1="10" y1="22" x2="18" y2="22" stroke-width="3"/>
  </g>
</svg>