<svg xmlns="http://www.w3.org/2000/svg" width="400" height="240" viewBox="0 0 400 240">
  <defs>
    <pattern id="dots" width="20" height="20" patternUnits="userSpaceOnUse">
      <circle cx="10" cy="10" r="1.2" fill="white" opacity="0.08"/>
    </pattern>
    <linearGradient id="bg" x1="0" y1="0" x2="1" y2="1">
      <stop offset="0%" stop-color="#0099A8"/>
      <stop offset="100%" stop-color="#007A87"/>
    </linearGradient>
  </defs>
  <rect width="400" height="240" rx="12" fill="url(#bg)"/>
  <rect width="400" height="240" rx="12" fill="url(#dots)"/>
  <g transform="translate(160,80)" fill="none" stroke="white" stroke-width="4" stroke-linecap="round" stroke-linejoin="round">
    <path d="M4 4h14c4 0 6 2 6 6v32c0-3-2-5-6-5H4z" fill="white" fill-opacity="0.15"/>
    <path d="M44 4H30c-4 0-6 2-6 6v32c0-3 2-5 6-5h14z" fill="white" fill-opacity="0.15"/>
    <line x1="10" y1="14" x2="18" y2="14" stroke-width="2"/>
    <line x1="10" y1="20" x2="16" y2="20" stroke-width="2"/>
    <line x1="30" y1="14" x2="38" y2="14" stroke-width="2"/>
    <line x1="30" y1="20" x2="36" y2="20" stroke-width="2"/>
  </g>
</svg>