<svg xmlns="http://www.w3.org/2000/svg" width="400" height="240" viewBox="0 0 400 240">
  <defs>
    <pattern id="dots" width="20" height="20" patternUnits="userSpaceOnUse">
      <circle cx="10" cy="10" r="1.2" fill="white" opacity="0.08"/>
    </pattern>
    <linearGradient id="bg" x1="0" y1="0" x2="1" y2="1">
      <stop offset="0%" stop-color="#0099A8"/>
      <stop offset="100%" stop-color="#007A87"/>
    </linearGradient>
  </defs>
  <rect width="400" height="240" rx="12" fill="url(#bg)"/>
  <rect width="400" height="240" rx="12" fill="url(#dots)"/>
  <g transform="translate(160,80)" fill="none" stroke="white" stroke-width="4" stroke-linecap="round" stroke-linejoin="round">
    <path d="M12 4a8 8 0 0 0-7.7 10.1"/>
    <path d="M12 4a8 8 0 0 1 7.7 10.1"/>
    <path d="M20.7 14.1A8 8 0 0 1 12 44"/>
    <path d="M3.3 14.1A8 8 0 0 0 12 44"/>
    <path d="M12 4v40"/>
    <path d="M4.3 14.1C6.5 17 9 19 12 20"/>
    <path d="M19.7 14.1C17.5 17 15 19 12 20"/>
    <path d="M4.3 14.1C6.5 11 9 9 12 8"/>
    <path d="M19.7 14.1C17.5 11 15 9 12 8"/>
    <circle cx="12" cy="24" r="3" fill="white" stroke="none" opacity="0.4"/>
    <path d="M3.3 28c3 2 6 3 8.7 3"/>
    <path d="M20.7 28c-3 2-6 3-8.7 3"/>
  </g>
</svg>