<svg xmlns="http://www.w3.org/2000/svg" width="400" height="240" viewBox="0 0 400 240">
  <defs>
    <pattern id="dots" width="20" height="20" patternUnits="userSpaceOnUse">
      <circle cx="10" cy="10" r="1.2" fill="white" opacity="0.08"/>
    </pattern>
    <linearGradient id="bg" x1="0" y1="0" x2="1" y2="1">
      <stop offset="0%" stop-color="#0099A8"/>
      <stop offset="100%" stop-color="#007A87"/>
    </linearGradient>
  </defs>
  <rect width="400" height="240" rx="12" fill="url(#bg)"/>
  <rect width="400" height="240" rx="12" fill="url(#dots)"/>
  <g transform="translate(160,80)" fill="none" stroke="white" stroke-width="3.5" stroke-linecap="round" stroke-linejoin="round">
    <path d="M4 18V8a4 4 0 0 1 4-4h10" fill="white" fill-opacity="0.15"/>
    <path d="M18 4c0 0 0-4 6-4s6 4 6 4h10a4 4 0 0 1 4 4v10" fill="white" fill-opacity="0.15"/>
    <path d="M44 18c0 0 4 0 4 6s-4 6-4 6v10a4 4 0 0 1-4 4H30" fill="white" fill-opacity="0.1"/>
    <path d="M30 44c0 0 0 4-6 4s-6-4-6-4H8a4 4 0 0 1-4-4V30" fill="white" fill-opacity="0.1"/>
    <path d="M4 30c0 0-4 0-4-6s4-6 4-6" fill="white" fill-opacity="0.15"/>
  </g>
</svg>