<?xml version="1.0" standalone="no"?>
<!DOCTYPE svg PUBLIC "-//W3C//DTD SVG 20010904//EN"
 "http://www.w3.org/TR/2001/REC-SVG-20010904/DTD/svg10.dtd">
<svg version="1.0" xmlns="http://www.w3.org/2000/svg"
 width="756.000000pt" height="645.000000pt" viewBox="0 0 756.000000 645.000000"
 preserveAspectRatio="xMidYMid meet">

<g transform="translate(0.000000,645.000000) scale(0.100000,-0.100000)"
fill="#0099A8" stroke="none">
<path d="M3020 6444 c-421 -37 -744 -116 -1098 -269 -227 -99 -486 -255 -702
-425 -135 -107 -413 -385 -520 -520 -377 -479 -601 -1018 -677 -1629 -23 -186
-23 -566 0 -752 76 -611 300 -1150 677 -1629 107 -135 385 -413 520 -520 487
-383 1027 -605 1665 -682 179 -21 567 -16 760 11 645 89 1238 358 1704 773 30
26 59 48 63 48 4 0 8 -74 8 -165 l0 -165 65 0 65 0 0 290 0 290 -287 -2 -288
-3 -3 -67 -3 -68 172 0 172 0 -19 -21 c-10 -12 -71 -63 -134 -114 -726 -584
-1644 -807 -2564 -620 -730 147 -1389 569 -1848 1182 -496 662 -702 1509 -568
2334 105 643 399 1217 860 1679 502 503 1087 788 1830 891 125 18 582 18 710
0 376 -50 682 -140 995 -291 593 -287 1105 -791 1401 -1378 l46 -92 74 0 c41
0 74 2 74 5 0 2 -18 42 -40 87 -99 208 -234 423 -388 618 -99 125 -380 405
-512 509 -469 372 -1013 599 -1615 676 -115 15 -501 27 -595 19z"/>
<path d="M6317 4387 c-8 -21 8 -39 29 -35 27 5 25 42 -2 46 -12 2 -24 -3 -27
-11z"/>
<path d="M6484 4385 c-8 -20 4 -35 27 -35 14 0 19 7 19 25 0 18 -5 25 -20 25
-11 0 -23 -7 -26 -15z"/>
<path d="M5275 4281 c-71 -17 -115 -73 -115 -148 0 -77 49 -124 148 -143 140
-26 172 -49 172 -122 0 -109 -169 -155 -274 -75 -25 19 -36 23 -45 14 -18 -18
-14 -25 31 -54 33 -20 59 -27 116 -31 121 -8 195 35 209 122 16 100 -33 154
-157 175 -118 19 -160 52 -160 125 0 32 7 45 37 73 35 34 39 35 103 31 47 -2
74 -10 97 -26 26 -18 33 -20 42 -8 17 20 -27 52 -90 65 -55 12 -70 12 -114 2z"/>
<path d="M3030 4000 c0 -273 0 -280 20 -280 19 0 20 7 20 119 l0 119 119 3
c129 4 150 12 195 73 28 37 28 128 1 174 -34 57 -83 72 -228 72 l-127 0 0
-280z m281 224 c70 -41 74 -163 6 -204 -26 -17 -51 -20 -139 -20 l-108 0 0
118 c0 65 3 122 8 126 4 5 50 6 103 4 72 -4 106 -10 130 -24z"/>
<path d="M3530 4000 c0 -273 0 -280 20 -280 19 0 20 7 20 130 l0 130 80 0 79
0 68 -130 c57 -109 72 -130 91 -130 13 0 22 3 20 8 -1 4 -31 62 -65 129 l-63
121 45 22 c55 27 78 66 79 137 0 61 -21 98 -75 125 -27 15 -60 18 -166 18
l-133 0 0 -280z m243 241 c73 -17 106 -74 85 -149 -16 -56 -55 -72 -180 -72
l-108 0 0 108 c0 60 3 112 7 115 9 10 151 8 196 -2z"/>
<path d="M4156 4213 c-77 -207 -176 -478 -176 -485 0 -4 8 -8 19 -8 14 0 25
17 44 68 l25 67 132 0 133 0 25 -67 c18 -51 30 -68 43 -68 11 0 19 4 19 8 0 5
-34 100 -75 213 -129 348 -125 339 -145 339 -13 0 -25 -18 -44 -67z m105 -151
c31 -86 54 -160 52 -164 -5 -9 -217 -11 -225 -3 -5 6 104 325 112 325 3 0 30
-71 61 -158z"/>
<path d="M4571 4145 l80 -135 -72 -123 c-40 -67 -79 -132 -87 -144 -13 -22
-13 -23 9 -23 20 0 36 21 98 126 64 110 75 123 85 107 7 -10 41 -66 75 -125
54 -92 67 -108 88 -108 25 0 25 0 8 26 -44 68 -155 256 -155 263 0 5 34 66 75
136 41 69 75 129 75 131 0 3 -10 4 -22 2 -17 -2 -38 -30 -83 -109 -33 -58 -64
-107 -70 -109 -5 -1 -37 47 -71 106 -51 90 -66 110 -88 112 -24 3 -22 -3 55
-133z"/>
<path d="M5000 4000 c0 -273 0 -280 20 -280 20 0 20 7 20 280 0 273 0 280 -20
280 -20 0 -20 -7 -20 -280z"/>
<path d="M5820 4000 c0 -273 0 -280 20 -280 19 0 20 7 20 130 l0 130 125 0
c104 0 125 2 125 15 0 13 -21 15 -125 15 l-125 0 0 120 0 120 150 0 c127 0
150 2 150 15 0 13 -26 15 -170 15 l-170 0 0 -280z"/>
<path d="M6230 4078 c1 -211 8 -257 47 -300 75 -83 240 -76 306 13 29 40 36
96 37 302 0 180 -1 187 -20 187 -19 0 -20 -7 -20 -182 -1 -205 -9 -261 -48
-301 -31 -32 -92 -51 -139 -42 -45 8 -100 59 -113 103 -5 20 -10 124 -10 230
0 185 -1 192 -20 192 -19 0 -20 -7 -20 -202z"/>
<path d="M6730 4000 c0 -273 0 -280 20 -280 19 0 20 7 20 130 l0 130 80 0 79
0 68 -130 c56 -107 72 -130 91 -130 12 0 22 2 22 4 0 2 -29 60 -65 129 l-66
125 46 22 c56 27 79 67 79 137 0 61 -22 99 -75 125 -27 15 -60 18 -166 18
l-133 0 0 -280z m243 241 c73 -17 106 -74 85 -149 -16 -56 -55 -72 -180 -72
l-108 0 0 108 c0 60 3 112 7 115 9 10 151 8 196 -2z"/>
<path d="M4751 3611 c-26 -26 -26 -46 -1 -71 23 -23 39 -25 64 -7 19 14 25 62
10 77 -22 20 -53 21 -73 1z"/>
<path d="M4922 3614 c-30 -21 -29 -59 3 -80 23 -15 27 -15 50 0 32 21 33 59 3
80 -12 9 -25 16 -28 16 -3 0 -16 -7 -28 -16z"/>
<path d="M4270 3210 l0 -280 180 0 180 0 0 45 0 45 -130 0 -130 0 0 235 0 235
-50 0 -50 0 0 -280z"/>
<path d="M4773 3469 c-67 -33 -100 -92 -108 -194 -13 -156 6 -246 65 -299 92
-83 240 -66 307 36 26 39 28 50 31 168 4 142 -6 194 -45 241 -57 67 -168 89
-250 48z m167 -104 c23 -24 25 -33 28 -143 3 -139 -10 -180 -67 -198 -44 -14
-75 -7 -106 23 -27 28 -32 67 -26 213 4 88 12 107 54 126 41 18 85 10 117 -21z"/>
<path d="M5265 3480 c-65 -20 -107 -80 -108 -153 -2 -97 41 -138 170 -163 86
-16 113 -34 113 -74 0 -75 -140 -100 -218 -39 l-25 20 -34 -33 c-31 -30 -32
-33 -17 -50 27 -28 95 -57 155 -64 167 -19 282 103 225 240 -19 45 -65 71
-161 90 -90 18 -121 41 -110 85 14 61 94 80 170 41 l39 -20 29 29 c34 34 31
44 -26 73 -47 24 -153 33 -202 18z"/>
<path d="M5630 3283 c0 -182 3 -213 19 -249 64 -141 291 -148 363 -11 21 39
23 57 26 255 l4 212 -51 0 -51 0 0 -182 c0 -200 -8 -250 -46 -274 -38 -25
-102 -20 -133 11 l-26 25 -3 210 -3 210 -50 0 -49 0 0 -207z"/>
<path d="M6160 3210 l0 -280 50 0 50 0 0 178 0 177 116 -177 116 -178 44 0 44
0 0 281 0 280 -47 -3 -48 -3 -5 -172 -5 -173 -114 175 -114 175 -44 0 -43 0 0
-280z"/>
<path d="M6814 3476 c-17 -8 -44 -27 -59 -42 -48 -51 -57 -86 -57 -230 0 -113
3 -138 21 -172 43 -84 125 -123 220 -104 112 23 160 92 161 230 l0 82 -105 0
-105 0 0 -45 0 -45 55 0 55 0 0 -35 c0 -24 -9 -44 -27 -65 -23 -26 -36 -31
-72 -32 -38 0 -49 4 -73 31 -27 31 -28 34 -28 154 0 140 9 165 62 185 44 17
76 11 116 -23 l29 -24 33 34 c33 34 33 35 15 55 -49 54 -169 77 -241 46z"/>
<path d="M7283 3480 c-60 -19 -113 -94 -113 -162 0 -38 33 -98 65 -118 18 -11
68 -27 111 -36 83 -15 114 -34 114 -68 0 -79 -133 -108 -217 -48 l-30 21 -32
-33 -31 -32 22 -22 c52 -48 164 -72 246 -53 99 24 152 99 138 194 -11 75 -55
109 -169 130 -43 8 -87 23 -97 32 -27 25 -25 61 6 92 23 23 31 25 81 20 30 -3
66 -13 80 -22 24 -16 26 -16 54 11 16 15 29 31 29 35 0 5 -21 20 -46 35 -51
30 -153 41 -211 24z"/>
<path d="M3035 2737 c-3 -7 -4 -134 -3 -282 l3 -270 48 -3 47 -3 0 285 0 286
-45 0 c-28 0 -48 -5 -50 -13z"/>
<path d="M3280 2464 l0 -285 48 3 47 3 5 158 5 159 55 -111 c53 -108 55 -111
88 -111 33 0 34 2 87 113 l54 112 3 -160 3 -160 48 -3 47 -3 0 285 0 286 -46
0 -45 0 -41 -87 c-22 -49 -56 -122 -76 -163 l-35 -75 -78 163 -79 162 -45 0
-45 0 0 -286z"/>
<path d="M3910 2466 l0 -287 48 3 47 3 3 108 3 107 77 0 c135 0 202 51 210
159 5 75 -21 128 -81 162 -36 20 -59 23 -174 27 l-133 5 0 -287z m267 162 c29
-27 30 -77 4 -109 -16 -20 -30 -24 -95 -27 l-76 -4 0 81 0 81 72 0 c60 0 76
-4 95 -22z"/>
<path d="M4387 2743 c-12 -11 -8 -371 5 -420 34 -135 219 -188 329 -96 62 52
69 84 69 316 l0 207 -49 0 -50 0 -3 -210 -3 -210 -26 -26 c-33 -32 -92 -37
-132 -11 -39 25 -47 72 -47 275 l0 182 -43 0 c-24 0 -47 -3 -50 -7z"/>
<path d="M4910 2465 l0 -285 180 0 180 0 0 50 0 50 -130 0 -130 0 0 235 0 235
-50 0 -50 0 0 -285z"/>
<path d="M5420 2735 c-70 -32 -102 -81 -102 -156 0 -91 53 -138 181 -158 71
-11 101 -32 101 -68 0 -40 -18 -62 -60 -73 -49 -13 -106 -5 -142 21 -36 25
-39 24 -74 -12 l-29 -31 28 -23 c33 -29 115 -55 171 -55 121 0 206 72 206 175
0 89 -49 136 -165 156 -81 13 -100 22 -116 50 -15 30 5 74 42 89 34 15 103 6
138 -16 22 -15 25 -14 52 12 16 15 29 31 29 35 0 5 -21 20 -46 35 -57 34 -160
43 -214 19z"/>
<path d="M5795 2738 c-3 -8 -4 -135 -3 -283 l3 -270 180 0 180 0 3 48 3 47
-135 0 -136 0 0 70 0 70 115 0 115 0 0 45 0 44 -112 3 -113 3 -3 68 -3 67 136
0 136 0 -3 48 -3 47 -178 3 c-137 2 -179 0 -182 -10z"/>
</g>
</svg>
